Coordinates
version=1
nRows=19
nColumns=34
inDegrees=yes

Units are S.I. units (second, meters, Newtons, ...)
If the header above contains a line with 'inDegrees', this indicates whether rotational values are in degrees (yes) or radians (no).

endheader
time	pelvis_tilt	pelvis_list	pelvis_rotation	pelvis_tx	pelvis_ty	pelvis_tz	hip_flexion_r	hip_adduction_r	hip_rotation_r	knee_angle_r	ankle_angle_r	subtalar_angle_r	mtp_angle_r	hip_flexion_l	hip_adduction_l	hip_rotation_l	knee_angle_l	ankle_angle_l	subtalar_angle_l	mtp_angle_l	lumbar_extension	lumbar_bending	lumbar_rotation	arm_flex_r	arm_add_r	arm_rot_r	elbow_flex_r	pro_sup_r	arm_flex_l	arm_add_l	arm_rot_l	elbow_flex_l	pro_sup_l
      1.25000000	     -0.36350067	     -6.37855803	      1.68214801	     -0.66436052	      0.90800749	     -0.25240334	     19.53692520	     11.23932156	     -2.66108344	    -22.05876386	      0.14890493	     -6.39717370	      6.57138193	     -2.02423293	     -7.73745090	     -0.48397986	    -50.36947540	    -17.64867436	      1.69675407	     31.99332050	     -3.56183566	      9.76352990	     -6.10885535	     -6.35684701	    -16.97848429	     12.08816665	     14.32699342	     90.00000000	      0.43203507	    -16.71286798	     14.51863506	     41.30244165	     90.00000000
      1.26000000	     -0.28675505	     -6.61035553	      2.06131662	     -0.65159921	      0.90953650	     -0.25256688	     18.39097275	     11.44321273	     -2.96162299	    -21.76403729	      1.10194712	     -6.06663201	      6.57629626	      0.06209154	     -7.92158843	      0.27663895	    -53.08314414	    -16.79669913	     -0.09917143	     32.24733084	     -3.68169014	     10.09213119	     -5.98816942	     -5.98259683	    -17.04506460	     12.22703538	     14.72375590	     90.00000000	      0.57129593	    -16.39392977	     15.17277092	     40.07832498	     90.00000000
      1.27000000	     -0.19511224	     -6.74273678	      2.41363254	     -0.63895024	      0.91120411	     -0.25256619	     17.08447905	     11.58237637	     -3.23821328	    -21.17407182	      1.90929837	     -5.81242738	      6.61607731	      2.11214773	     -7.94727067	      0.97777813	    -55.44764221	    -15.59479515	     -1.58564871	     32.37617439	     -3.85683090	     10.28192160	     -5.87545134	     -5.60021104	    -17.08738971	     12.31024070	     15.26912667	     90.00000000	      0.54376311	    -16.16019606	     15.58094346	     39.21332390	     90.00000000
      1.28000000	     -0.22536201	     -6.63823251	      2.72165791	     -0.62655759	      0.91277065	     -0.25276057	     15.92016324	     11.42274805	     -3.75332609	    -20.60233336	      2.64761125	     -5.23106460	      6.58982148	      4.27200720	     -7.57965982	      1.70638733	    -57.42223271	    -14.30237511	     -3.06416958	     32.51371570	     -3.90530984	     10.22746379	     -5.66901229	     -5.23640496	    -17.18612348	     12.65336754	     15.84099238	     90.00000000	      0.68550955	    -15.93337865	     16.36286230	     37.94370486	     90.00000000
      1.29000000	     -0.18182483	     -6.45753059	      3.08172037	     -0.61392028	      0.91464052	     -0.25278667	     14.58571843	     11.18295164	     -4.36865956	    -19.89967468	      3.53890506	     -4.16345828	      6.31988049	      6.27038234	     -7.11181132	      2.46162986	    -58.95277595	    -12.99923907	     -4.00974920	     32.66338907	     -3.94339558	     10.03530428	     -5.43938481	     -4.87274383	    -17.19783311	     13.21340393	     16.23247719	     90.00000000	      0.97148316	    -15.82588812	     17.99522691	     36.26636463	     90.00000000
      1.30000000	     -0.12262502	     -6.20505243	      3.36436077	     -0.60137151	      0.91655088	     -0.25291302	     13.22350644	     10.91378255	     -4.84097936	    -19.19882739	      4.31814072	     -3.47095507	      5.93794909	      8.16597765	     -6.49090335	      3.10496294	    -60.06331276	    -11.59373005	     -4.91656965	     32.81822970	     -4.07069188	      9.78244053	     -5.17641631	     -4.44132950	    -17.28705611	     13.89280006	     16.71388011	     90.00000000	      1.10159773	    -15.59299885	     18.75150381	     34.84631516	     90.00000000
      1.31000000	      0.17331515	     -5.79004562	      3.53445533	     -0.58860600	      0.91891627	     -0.25287563	     11.52227482	     10.50385974	     -5.31619064	    -18.40908594	      5.14944036	     -2.36907495	      5.54305314	      9.61849900	     -5.74677919	      3.53412017	    -60.70131986	     -9.95802210	     -5.28370573	     32.89173345	     -4.47407569	      9.32918917	     -4.78857369	     -4.01128014	    -17.32622007	     14.42804406	     17.25214428	     90.00000000	      1.18730012	    -15.53065331	     19.81487201	     33.57581297	     90.00000000
      1.32000000	      0.30739799	     -5.42324264	      3.67311162	     -0.57581346	      0.92094781	     -0.25274648	      9.96813837	     10.18743799	     -5.54740763	    -17.56157195	      5.77492759	     -1.78368378	      5.24453708	     11.19420337	     -5.08375613	      3.81473793	    -61.01711977	     -8.18517303	     -5.61980536	     32.99143952	     -4.67898545	      8.92774862	     -4.38541809	     -3.64452336	    -17.40948305	     14.76373431	     17.89924639	     90.00000000	      1.13924031	    -15.39562246	     20.34963680	     32.42964452	     90.00000000
      1.33000000	      0.30316232	     -4.94621109	      3.63520987	     -0.56318668	      0.92271623	     -0.25244769	      8.58829042	      9.76019253	     -5.55454446	    -16.77360320	      6.40886078	     -1.11113704	      4.94872730	     12.79826998	     -4.33962896	      3.86099223	    -60.96779459	     -6.49822087	     -5.84765569	     32.96081500	     -4.74560660	      8.35524915	     -3.82609500	     -3.27629488	    -17.48249231	     15.08148483	     18.55150484	     90.00000000	      1.08571003	    -15.23569170	     20.83142543	     31.13330481	     90.00000000
      1.34000000	      0.36589953	     -4.50376593	      3.58481194	     -0.55048781	      0.92447838	     -0.25201982	      7.07757484	      9.41469816	     -5.29204168	    -15.83216818	      6.85159755	     -0.72389143	      4.59937028	     14.22775128	     -3.72552243	      3.73697242	    -60.53301537	     -4.85251933	     -6.11462323	     32.83058135	     -4.90112827	      7.82888128	     -3.30617925	     -2.89148277	    -17.57715538	     15.44033288	     19.27031222	     90.00000000	      0.99817447	    -15.12139854	     21.39441464	     29.87549138	     90.00000000
      1.35000000	      0.40702169	     -4.05323988	      3.49069472	     -0.53782897	      0.92609912	     -0.25154733	      5.60760169	      9.09696235	     -4.67310702	    -14.91088731	      7.13021112	     -0.77466904	      3.97380648	     15.59406311	     -3.14855142	      3.52303437	    -59.75571367	     -3.46755063	     -6.37432454	     32.22296676	     -5.00984767	      7.30417246	     -2.71871375	     -2.44672581	    -17.72199854	     16.02267692	     19.96594801	     90.00000000	      1.01841167	    -15.02677203	     22.58942572	     28.33101722	     90.00000000
      1.36000000	      0.31015813	     -3.60049189	      3.34636555	     -0.52528467	      0.92714596	     -0.25094764	      4.40035430	      8.74830742	     -4.25718777	    -14.15599019	      7.46551789	     -0.67681257	      3.92597620	     17.03436889	     -2.62816286	      3.16015751	    -58.72576335	     -2.34987671	     -6.56058244	     32.15055342	     -5.00991981	      6.72909081	     -2.23839156	     -2.00053410	    -17.79746713	     16.02416748	     20.77553287	     90.00000000	      0.58349912	    -15.01709183	     22.49298760	     27.71590191	     90.00000000
      1.37000000	      0.29135189	     -3.14964005	      3.09021714	     -0.51261596	      0.92817924	     -0.25015385	      3.08772502	      8.44459360	     -3.60675190	    -13.37067374	      7.73130287	     -0.97151570	      3.78713745	     18.21432216	     -2.19485819	      2.60776586	    -57.27347524	     -1.30438377	     -6.86275987	     31.75144188	     -5.07371756	      6.14626043	     -1.55096328	     -1.61063535	    -17.92108630	     16.23069094	     21.60808795	     90.00000000	      0.42564871	    -14.90411534	     22.66711140	     26.37328517	     90.00000000
      1.38000000	      0.11163018	     -2.65941838	      2.69317473	     -0.50046244	      0.92860160	     -0.24936923	      1.98409915	      8.08731260	     -2.56185243	    -12.61311762	      8.14209383	     -1.51473654	      3.03073188	     19.54265505	     -1.73959379	      1.99103646	    -55.67036136	     -0.22292869	     -6.75500748	     26.51886966	     -5.00546492	      5.53703776	     -0.70633396	     -1.18928673	    -18.15428431	     16.50193570	     22.42519866	     90.00000000	      0.48720463	    -14.78676948	     23.97438570	     24.69152436	     90.00000000
      1.39000000	     -0.06508750	     -2.38223060	      2.62604041	     -0.48804090	      0.92860394	     -0.24887827	      0.86494191	      7.91877056	     -2.01845894	    -11.80013020	      8.58744310	     -1.61713934	      3.05700184	     20.83152320	     -1.46690408	      1.61428889	    -53.79564985	      0.54386600	     -7.03777295	     26.53672667	     -4.88901182	      5.16329641	     -0.40799065	     -0.65495879	    -18.28482101	     16.43797308	     23.22703381	     90.00000000	     -0.12357370	    -14.89337016	     23.78158905	     24.40461837	     90.00000000
      1.40000000	      0.07227445	     -2.02012493	      2.25525408	     -0.47558129	      0.92897107	     -0.24799450	     -0.69103289	      7.66511105	     -1.20805232	    -10.85070013	      8.74191166	     -2.18638506	      2.90307280	     21.52755559	     -1.22074901	      0.94112227	    -51.46609004	      1.20232472	     -7.79965711	     26.20838943	     -5.16612978	      4.69517927	      0.33611343	     -0.15601981	    -18.55412613	     16.82226388	     24.12848946	     90.00000000	     -0.18938878	    -14.65781461	     23.63707784	     22.72952249	     90.00000000
      1.41000000	      0.09450455	     -1.72015317	      2.00555595	     -0.46327917	      0.92885257	     -0.24748797	     -2.06287689	      7.39480535	     -0.85976953	     -9.96805940	      9.05106396	     -2.11225919	      2.96549152	     22.30297824	     -0.97622427	      0.41604480	    -48.91244969	      1.70328292	     -8.39441857	     25.98618939	     -5.32279660	      4.31653536	      0.84607350	      0.43494759	    -18.76504946	     16.87311911	     24.93814870	     90.00000000	     -0.52457974	    -14.58446747	     23.58650563	     21.87846890	     90.00000000
      1.42000000	      0.35710108	     -1.51017961	      1.90014724	     -0.45058939	      0.92867304	     -0.24695435	     -3.75530247	      7.23999704	     -0.83003372	     -8.99492225	      9.35611659	     -1.87735204	      2.99828467	     22.69600992	     -0.80228201	      0.01752841	    -46.10633851	      1.75098442	     -9.30316795	     25.40839145	     -5.69019088	      4.03825700	      1.25088112	      0.94962080	    -19.02911624	     17.00413995	     25.88233909	     90.00000000	     -0.77376654	    -14.56134914	     23.85718330	     20.79360298	     90.00000000
      1.43000000	      0.60786839	     -1.33444052	      1.73730137	     -0.43795182	      0.92819415	     -0.24653419	     -5.41270443	      7.07280427	     -0.79560984	     -8.07848210	      9.55901046	     -1.44661250	      3.40125438	     23.03771994	     -0.67660936	     -0.38590238	    -43.21456670	      2.29305271	     -9.64151471	     20.94822240	     -6.05948104	      3.82328154	      1.72586215	      1.42268185	    -19.29350231	     16.68633753	     26.92465065	     90.00000000	     -0.91998542	    -14.48688056	     24.72973743	     19.54398812	     90.00000000
